<?xml version="1.0" encoding="iso-8859-1"?>
<!-- Uploaded to: SVG Repo, www.svgrepo.com, Generator: SVG Repo Mixer Tools -->
<!DOCTYPE svg PUBLIC "-//W3C//DTD SVG 1.1//EN" "http://www.w3.org/Graphics/SVG/1.1/DTD/svg11.dtd">
<svg fill="#ffffff" height="800px" width="800px" version="1.1" id="Capa_1" xmlns="http://www.w3.org/2000/svg" xmlns:xlink="http://www.w3.org/1999/xlink" 
	 viewBox="0 0 214.692 214.692" xml:space="preserve">
<path d="M150.159,100.972c0.135,0,0.27,0.003,0.404,0.01l13.676,0.603c16.345,0.715,32.485-3.197,46.681-11.331
	c3.594-2.06,4.838-6.643,2.779-10.236c-2.06-3.596-6.643-4.835-10.236-2.779c-11.727,6.719-25.047,9.963-38.563,9.36l-13.675-0.603
	c-12.038-0.526-22.711,8.001-24.857,19.846c-0.141,0.78-0.154,1.554-0.058,2.3c-6.646,2.399-12.739,6.249-17.885,11.394
	c-1.163,1.163-2.253,2.373-3.274,3.62H89.289l14.84-14.841c3.447-3.446,5.346-8.029,5.346-12.904c0-1.462-0.191-2.891-0.523-4.278
	l60.587-60.587c1.406-1.407,2.196-3.314,2.196-5.304s-0.79-3.896-2.196-5.304l-5.817-5.817c-1.407-1.406-3.314-2.196-5.304-2.196
	s-3.896,0.79-5.304,2.196L92.528,74.707c-1.386-0.332-2.816-0.523-4.277-0.523c-4.875,0-9.458,1.898-12.905,5.345L5.336,149.537
	c-7.115,7.116-7.115,18.694,0,25.811l2.976,2.976c3.447,3.446,8.03,5.345,12.905,5.345s9.458-1.898,12.905-5.345l37.42-37.421h24.42
	c-0.757,2.729-1.25,5.513-1.526,8.315l-12.996,0.729c-4.136,0.232-7.3,3.772-7.068,7.908c0.224,3.993,3.531,7.08,7.481,7.08
	c0.142,0,0.284-0.004,0.427-0.012l12.986-0.728c1.885,8.908,6.254,17.389,13.159,24.295c9.209,9.208,21.453,14.279,34.477,14.279
	s25.268-5.071,34.478-14.28c8.287-8.288,12.958-18.841,14.02-29.684l12.964-0.727c4.136-0.232,7.3-3.772,7.068-7.908
	c-0.231-4.137-3.771-7.288-7.908-7.068l-12.967,0.727c-1.889-8.908-6.273-17.388-13.177-24.293
	c-9.209-9.208-21.453-14.279-34.477-14.279c-0.167,0-0.333,0.01-0.5,0.012C144.051,102.664,146.954,100.972,150.159,100.972z
	 M165.213,176.323c-5.96,5.959-13.884,9.241-22.312,9.241c-8.429,0-16.353-3.282-22.312-9.242
	c-3.721-3.721-6.398-8.208-7.884-13.105l15.896-0.891c0.712,1.22,1.57,2.365,2.596,3.39c3.126,3.127,7.282,4.849,11.704,4.849
	c4.421,0,8.578-1.722,11.704-4.849c1.476-1.476,2.627-3.187,3.443-5.042l15.874-0.89
	C172.777,166.013,169.788,171.748,165.213,176.323z M165.213,131.7c3.721,3.721,6.398,8.208,7.884,13.106l-15.896,0.891
	c-0.712-1.22-1.57-2.365-2.595-3.39c-3.127-3.127-7.284-4.849-11.705-4.849c-4.422,0-8.578,1.722-11.704,4.848
	c-1.476,1.476-2.627,3.188-3.443,5.043l-15.874,0.89c1.146-6.23,4.135-11.964,8.711-16.539c5.958-5.959,13.882-9.241,22.311-9.241
	C151.33,122.459,159.253,125.741,165.213,131.7z"/>
</svg>